<svg width="1440" height="1024" viewBox="0 0 1440 1024" fill="none" xmlns="http://www.w3.org/2000/svg">
<rect width="1440" height="1024" fill="#1E1E1E"/>
<rect width="1440" height="1024" fill="white"/>
<ellipse cx="362" cy="179.5" rx="101" ry="85.5" fill="#D9D9D9"/>
<path d="M333.493 175.218C333.401 174.441 333.028 173.838 332.373 173.408C331.719 172.978 330.916 172.764 329.965 172.764C329.269 172.764 328.661 172.876 328.139 173.101C327.623 173.326 327.219 173.636 326.927 174.029C326.641 174.423 326.498 174.87 326.498 175.372C326.498 175.791 326.597 176.151 326.797 176.453C327.001 176.75 327.262 176.998 327.579 177.197C327.896 177.391 328.229 177.553 328.576 177.68C328.924 177.803 329.244 177.903 329.535 177.98L331.131 178.409C331.54 178.516 331.995 178.665 332.496 178.854C333.002 179.043 333.486 179.301 333.946 179.629C334.411 179.951 334.795 180.365 335.096 180.871C335.398 181.378 335.549 181.999 335.549 182.735C335.549 183.584 335.326 184.351 334.882 185.036C334.442 185.722 333.797 186.266 332.949 186.67C332.105 187.074 331.08 187.276 329.873 187.276C328.748 187.276 327.774 187.095 326.95 186.732C326.132 186.368 325.488 185.862 325.017 185.213C324.552 184.563 324.289 183.809 324.227 182.95H326.191C326.242 183.543 326.441 184.034 326.789 184.423C327.142 184.806 327.587 185.093 328.124 185.282C328.666 185.466 329.249 185.558 329.873 185.558C330.599 185.558 331.251 185.44 331.829 185.205C332.407 184.965 332.864 184.632 333.202 184.208C333.539 183.778 333.708 183.277 333.708 182.705C333.708 182.183 333.562 181.759 333.271 181.431C332.979 181.104 332.596 180.838 332.12 180.634C331.645 180.429 331.131 180.25 330.578 180.097L328.645 179.544C327.418 179.191 326.447 178.688 325.731 178.033C325.015 177.379 324.657 176.522 324.657 175.464C324.657 174.584 324.895 173.817 325.37 173.163C325.851 172.503 326.495 171.991 327.303 171.628C328.116 171.26 329.024 171.076 330.026 171.076C331.039 171.076 331.939 171.258 332.726 171.621C333.514 171.979 334.137 172.47 334.598 173.093C335.063 173.717 335.309 174.426 335.334 175.218H333.493ZM338.431 187V175.218H340.241V187H338.431ZM339.351 173.255C338.999 173.255 338.694 173.134 338.439 172.894C338.188 172.654 338.063 172.365 338.063 172.027C338.063 171.69 338.188 171.401 338.439 171.161C338.694 170.92 338.999 170.8 339.351 170.8C339.704 170.8 340.006 170.92 340.257 171.161C340.512 171.401 340.64 171.69 340.64 172.027C340.64 172.365 340.512 172.654 340.257 172.894C340.006 173.134 339.704 173.255 339.351 173.255ZM348.803 175.218V176.752H342.452V175.218H348.803ZM344.355 187V173.592C344.355 172.917 344.513 172.355 344.83 171.905C345.147 171.455 345.559 171.117 346.065 170.892C346.571 170.667 347.106 170.555 347.668 170.555C348.113 170.555 348.476 170.59 348.757 170.662C349.039 170.734 349.248 170.8 349.386 170.861L348.865 172.426C348.773 172.395 348.645 172.357 348.481 172.311C348.323 172.265 348.113 172.242 347.852 172.242C347.254 172.242 346.822 172.393 346.556 172.695C346.295 172.996 346.165 173.439 346.165 174.022V187H344.355ZM354.47 187.276C353.723 187.276 353.046 187.136 352.437 186.854C351.829 186.568 351.346 186.156 350.988 185.619C350.63 185.077 350.451 184.423 350.451 183.656C350.451 182.981 350.584 182.434 350.85 182.014C351.115 181.59 351.471 181.257 351.916 181.017C352.361 180.777 352.851 180.598 353.388 180.48C353.93 180.357 354.475 180.26 355.022 180.189C355.738 180.097 356.319 180.028 356.763 179.982C357.213 179.93 357.541 179.846 357.745 179.728C357.955 179.611 358.06 179.406 358.06 179.115V179.053C358.06 178.297 357.853 177.709 357.438 177.289C357.029 176.87 356.408 176.66 355.575 176.66C354.71 176.66 354.033 176.849 353.542 177.228C353.051 177.606 352.706 178.01 352.506 178.44L350.788 177.826C351.095 177.11 351.504 176.553 352.015 176.154C352.532 175.75 353.094 175.469 353.703 175.31C354.317 175.147 354.92 175.065 355.513 175.065C355.892 175.065 356.326 175.111 356.817 175.203C357.313 175.29 357.791 175.471 358.251 175.747C358.717 176.024 359.103 176.44 359.41 176.998C359.717 177.555 359.87 178.302 359.87 179.238V187H358.06V185.405H357.968C357.845 185.66 357.64 185.934 357.354 186.225C357.068 186.517 356.687 186.765 356.211 186.969C355.736 187.174 355.155 187.276 354.47 187.276ZM354.746 185.65C355.462 185.65 356.065 185.509 356.556 185.228C357.052 184.947 357.426 184.584 357.676 184.139C357.932 183.694 358.06 183.226 358.06 182.735V181.078C357.983 181.17 357.814 181.255 357.553 181.332C357.298 181.403 357.001 181.467 356.664 181.523C356.331 181.574 356.007 181.62 355.69 181.661C355.378 181.697 355.125 181.728 354.93 181.753C354.46 181.815 354.02 181.914 353.611 182.053C353.207 182.186 352.88 182.388 352.629 182.659C352.384 182.924 352.261 183.288 352.261 183.748C352.261 184.377 352.494 184.852 352.959 185.174C353.429 185.491 354.025 185.65 354.746 185.65ZM363.174 187V175.218H364.923V176.998H365.046C365.26 176.415 365.649 175.942 366.212 175.579C366.774 175.216 367.408 175.034 368.114 175.034C368.247 175.034 368.413 175.037 368.612 175.042C368.812 175.047 368.963 175.055 369.065 175.065V176.906C369.004 176.89 368.863 176.867 368.643 176.837C368.428 176.801 368.201 176.783 367.96 176.783C367.388 176.783 366.876 176.903 366.426 177.143C365.981 177.379 365.629 177.706 365.368 178.125C365.112 178.539 364.984 179.013 364.984 179.544V187H363.174ZM371.211 187V175.218H372.96V177.059H373.113C373.358 176.43 373.755 175.942 374.302 175.594C374.849 175.241 375.506 175.065 376.273 175.065C377.05 175.065 377.697 175.241 378.214 175.594C378.735 175.942 379.142 176.43 379.433 177.059H379.556C379.858 176.451 380.31 175.967 380.914 175.609C381.517 175.246 382.241 175.065 383.085 175.065C384.138 175.065 385 175.395 385.67 176.054C386.339 176.709 386.674 177.729 386.674 179.115V187H384.864V179.115C384.864 178.245 384.626 177.624 384.151 177.251C383.675 176.878 383.115 176.691 382.471 176.691C381.643 176.691 381.001 176.941 380.546 177.443C380.091 177.939 379.863 178.568 379.863 179.33V187H378.022V178.931C378.022 178.261 377.805 177.721 377.37 177.312C376.935 176.898 376.375 176.691 375.69 176.691C375.22 176.691 374.78 176.816 374.371 177.067C373.967 177.317 373.64 177.665 373.389 178.11C373.144 178.55 373.021 179.059 373.021 179.636V187H371.211ZM393.451 187.276C392.705 187.276 392.027 187.136 391.419 186.854C390.81 186.568 390.327 186.156 389.969 185.619C389.611 185.077 389.432 184.423 389.432 183.656C389.432 182.981 389.565 182.434 389.831 182.014C390.097 181.59 390.452 181.257 390.897 181.017C391.342 180.777 391.833 180.598 392.37 180.48C392.912 180.357 393.456 180.26 394.003 180.189C394.719 180.097 395.3 180.028 395.745 179.982C396.195 179.93 396.522 179.846 396.726 179.728C396.936 179.611 397.041 179.406 397.041 179.115V179.053C397.041 178.297 396.834 177.709 396.42 177.289C396.011 176.87 395.389 176.66 394.556 176.66C393.692 176.66 393.014 176.849 392.523 177.228C392.032 177.606 391.687 178.01 391.488 178.44L389.769 177.826C390.076 177.11 390.485 176.553 390.997 176.154C391.513 175.75 392.076 175.469 392.684 175.31C393.298 175.147 393.901 175.065 394.494 175.065C394.873 175.065 395.307 175.111 395.798 175.203C396.294 175.29 396.773 175.471 397.233 175.747C397.698 176.024 398.084 176.44 398.391 176.998C398.698 177.555 398.851 178.302 398.851 179.238V187H397.041V185.405H396.949C396.826 185.66 396.622 185.934 396.335 186.225C396.049 186.517 395.668 186.765 395.192 186.969C394.717 187.174 394.136 187.276 393.451 187.276ZM393.727 185.65C394.443 185.65 395.047 185.509 395.538 185.228C396.034 184.947 396.407 184.584 396.657 184.139C396.913 183.694 397.041 183.226 397.041 182.735V181.078C396.964 181.17 396.796 181.255 396.535 181.332C396.279 181.403 395.982 181.467 395.645 181.523C395.313 181.574 394.988 181.62 394.671 181.661C394.359 181.697 394.106 181.728 393.911 181.753C393.441 181.815 393.001 181.914 392.592 182.053C392.188 182.186 391.861 182.388 391.61 182.659C391.365 182.924 391.242 183.288 391.242 183.748C391.242 184.377 391.475 184.852 391.94 185.174C392.411 185.491 393.006 185.65 393.727 185.65Z" fill="black"/>
</svg>
