<svg width="431" height="546" viewBox="0 0 431 546" fill="none" xmlns="http://www.w3.org/2000/svg">
<g filter="url(#filter0_i_5_36)">
<rect y="265.601" width="42.8619" height="117.741" rx="21.4309" fill="#EF5350"/>
</g>
<rect x="6.46944" y="272.07" width="29.923" height="104.802" rx="14.9615" stroke="#B91C19" stroke-width="12.9389"/>
<rect x="394.608" y="272.07" width="29.923" height="104.802" rx="14.9615" fill="#EF5350" stroke="#B91C19" stroke-width="12.9389"/>
<line x1="218.398" y1="79.4065" x2="218.398" y2="175.242" stroke="#B91C19" stroke-width="12.9389"/>
<g filter="url(#filter1_i_5_36)">
<rect x="164.304" y="128.693" width="104.773" height="71.192" rx="35.596" fill="#EF5350"/>
</g>
<rect x="170.773" y="135.163" width="91.8346" height="58.2531" rx="29.1265" stroke="#B91C19" stroke-width="12.9389"/>
<g filter="url(#filter2_i_5_36)">
<ellipse cx="216.691" cy="43.8104" rx="38.0995" ry="43.8104" fill="#EF5350"/>
</g>
<path d="M248.321 43.8104C248.321 65.3113 233.34 81.1514 216.691 81.1514C200.041 81.1514 185.061 65.3113 185.061 43.8104C185.061 22.3095 200.041 6.46944 216.691 6.46944C233.34 6.46944 248.321 22.3095 248.321 43.8104Z" stroke="#B91C19" stroke-width="12.9389"/>
<g filter="url(#filter3_i_5_36)">
<path d="M21.4307 344.937C21.4307 246.68 101.083 167.027 199.34 167.027H231.659C329.916 167.027 409.569 246.68 409.569 344.937V375.41C409.569 423.646 370.467 462.748 322.231 462.748H108.768C60.533 462.748 21.4307 423.646 21.4307 375.41V344.937Z" fill="#EF5350"/>
</g>
<path d="M199.34 173.497H231.659C326.343 173.497 403.099 250.253 403.099 344.937V375.41C403.099 420.073 366.894 456.278 322.231 456.278H108.768C64.106 456.278 27.9001 420.073 27.9001 375.41V344.937C27.9001 250.253 104.656 173.497 199.34 173.497Z" stroke="#B91C19" stroke-width="12.9389"/>
<path d="M179.265 271.077C179.265 301.652 157.888 324.847 133.348 324.847C108.807 324.847 87.4306 301.652 87.4306 271.077C87.4306 240.503 108.807 217.308 133.348 217.308C157.888 217.308 179.265 240.503 179.265 271.077Z" fill="white" stroke="#B91C19" stroke-width="12.9389"/>
<ellipse cx="133.348" cy="271.077" rx="26.1934" ry="30.1197" fill="#0C0C0C"/>
<ellipse cx="123.823" cy="265.601" rx="9.52486" ry="10.9526" fill="white"/>
<path d="M341.188 271.077C341.188 301.652 319.811 324.847 295.271 324.847C270.73 324.847 249.353 301.652 249.353 271.077C249.353 240.503 270.73 217.308 295.271 217.308C319.811 217.308 341.188 240.503 341.188 271.077Z" fill="white" stroke="#B91C19" stroke-width="12.9389"/>
<ellipse cx="295.271" cy="271.077" rx="26.1934" ry="30.1197" fill="#0C0C0C"/>
<ellipse cx="285.746" cy="265.601" rx="9.52486" ry="10.9526" fill="white"/>
<path d="M169.066 366.913C188.116 409.354 241.693 409.354 261.934 366.913" stroke="#B91C19" stroke-width="12.9389" stroke-linecap="round"/>
<ellipse cx="214.693" cy="539.503" rx="161.423" ry="6.4967" fill="black" fill-opacity="0.1"/>
<defs>
<filter id="filter0_i_5_36" x="0" y="265.601" width="42.8618" height="117.741" filterUnits="userSpaceOnUse" color-interpolation-filters="sRGB">
<feFlood flood-opacity="0" result="BackgroundImageFix"/>
<feBlend mode="normal" in="SourceGraphic" in2="BackgroundImageFix" result="shape"/>
<feColorMatrix in="SourceAlpha" type="matrix" values="0 0 0 0 0 0 0 0 0 0 0 0 0 0 0 0 0 0 127 0" result="hardAlpha"/>
<feOffset dx="25.8778" dy="9.70415"/>
<feComposite in2="hardAlpha" operator="arithmetic" k2="-1" k3="1"/>
<feColorMatrix type="matrix" values="0 0 0 0 1 0 0 0 0 1 0 0 0 0 1 0 0 0 0.25 0"/>
<feBlend mode="normal" in2="shape" result="effect1_innerShadow_5_36"/>
</filter>
<filter id="filter1_i_5_36" x="164.304" y="128.693" width="104.773" height="71.192" filterUnits="userSpaceOnUse" color-interpolation-filters="sRGB">
<feFlood flood-opacity="0" result="BackgroundImageFix"/>
<feBlend mode="normal" in="SourceGraphic" in2="BackgroundImageFix" result="shape"/>
<feColorMatrix in="SourceAlpha" type="matrix" values="0 0 0 0 0 0 0 0 0 0 0 0 0 0 0 0 0 0 127 0" result="hardAlpha"/>
<feOffset dx="25.8778" dy="9.70415"/>
<feComposite in2="hardAlpha" operator="arithmetic" k2="-1" k3="1"/>
<feColorMatrix type="matrix" values="0 0 0 0 1 0 0 0 0 1 0 0 0 0 1 0 0 0 0.25 0"/>
<feBlend mode="normal" in2="shape" result="effect1_innerShadow_5_36"/>
</filter>
<filter id="filter2_i_5_36" x="178.591" y="0" width="76.199" height="87.6208" filterUnits="userSpaceOnUse" color-interpolation-filters="sRGB">
<feFlood flood-opacity="0" result="BackgroundImageFix"/>
<feBlend mode="normal" in="SourceGraphic" in2="BackgroundImageFix" result="shape"/>
<feColorMatrix in="SourceAlpha" type="matrix" values="0 0 0 0 0 0 0 0 0 0 0 0 0 0 0 0 0 0 127 0" result="hardAlpha"/>
<feOffset dx="25.8778" dy="9.70415"/>
<feComposite in2="hardAlpha" operator="arithmetic" k2="-1" k3="1"/>
<feColorMatrix type="matrix" values="0 0 0 0 1 0 0 0 0 1 0 0 0 0 1 0 0 0 0.25 0"/>
<feBlend mode="normal" in2="shape" result="effect1_innerShadow_5_36"/>
</filter>
<filter id="filter3_i_5_36" x="21.4307" y="167.027" width="388.138" height="295.72" filterUnits="userSpaceOnUse" color-interpolation-filters="sRGB">
<feFlood flood-opacity="0" result="BackgroundImageFix"/>
<feBlend mode="normal" in="SourceGraphic" in2="BackgroundImageFix" result="shape"/>
<feColorMatrix in="SourceAlpha" type="matrix" values="0 0 0 0 0 0 0 0 0 0 0 0 0 0 0 0 0 0 127 0" result="hardAlpha"/>
<feOffset dx="25.8778" dy="9.70415"/>
<feComposite in2="hardAlpha" operator="arithmetic" k2="-1" k3="1"/>
<feColorMatrix type="matrix" values="0 0 0 0 1 0 0 0 0 1 0 0 0 0 1 0 0 0 0.25 0"/>
<feBlend mode="normal" in2="shape" result="effect1_innerShadow_5_36"/>
</filter>
</defs>
</svg>
