<svg width="118" height="29" viewBox="0 0 118 29" fill="none" xmlns="http://www.w3.org/2000/svg">
<path d="M15.4886 8.36364C15.3352 7.06818 14.7131 6.0625 13.6222 5.34659C12.5313 4.63068 11.1932 4.27273 9.60795 4.27273C8.44886 4.27273 7.43466 4.46023 6.56534 4.83523C5.70455 5.21023 5.03125 5.72585 4.54545 6.3821C4.06818 7.03835 3.82955 7.78409 3.82955 8.61932C3.82955 9.31818 3.99574 9.91903 4.32812 10.4219C4.66903 10.9162 5.10369 11.3295 5.6321 11.6619C6.16051 11.9858 6.71449 12.2543 7.29403 12.4673C7.87358 12.6719 8.40625 12.8381 8.89205 12.9659L11.5511 13.6818C12.233 13.8608 12.9915 14.108 13.8267 14.4233C14.6705 14.7386 15.4759 15.169 16.2429 15.7145C17.0185 16.2514 17.6577 16.9418 18.1605 17.7855C18.6634 18.6293 18.9148 19.6648 18.9148 20.892C18.9148 22.3068 18.544 23.5852 17.8026 24.7273C17.0696 25.8693 15.9957 26.777 14.581 27.4503C13.1747 28.1236 11.4659 28.4602 9.45455 28.4602C7.57955 28.4602 5.95597 28.1577 4.58381 27.5526C3.22017 26.9474 2.14631 26.1037 1.36222 25.0213C0.586648 23.9389 0.147727 22.6818 0.0454546 21.25H3.31818C3.40341 22.2386 3.7358 23.0568 4.31534 23.7045C4.90341 24.3437 5.64489 24.821 6.53977 25.1364C7.44318 25.4432 8.41477 25.5966 9.45455 25.5966C10.6648 25.5966 11.7514 25.4006 12.7145 25.0085C13.6776 24.608 14.4403 24.054 15.0028 23.3466C15.5653 22.6307 15.8466 21.7955 15.8466 20.8409C15.8466 19.9716 15.6037 19.2642 15.1179 18.7188C14.6321 18.1733 13.9929 17.7301 13.2003 17.3892C12.4077 17.0483 11.5511 16.75 10.6307 16.4943L7.40909 15.5739C5.36364 14.9858 3.74432 14.1463 2.55114 13.0554C1.35795 11.9645 0.761364 10.5369 0.761364 8.77273C0.761364 7.30682 1.15767 6.02841 1.95028 4.9375C2.75142 3.83807 3.82528 2.98579 5.17188 2.38068C6.52699 1.76704 8.03977 1.46023 9.71023 1.46023C11.3977 1.46023 12.8977 1.76278 14.2102 2.3679C15.5227 2.96449 16.5625 3.78267 17.3295 4.82244C18.1051 5.86221 18.5142 7.04261 18.5568 8.36364H15.4886ZM23.7184 28V8.36364H26.7354V28H23.7184ZM25.2525 5.09091C24.6644 5.09091 24.1573 4.89062 23.7312 4.49006C23.3136 4.08949 23.1048 3.60795 23.1048 3.04545C23.1048 2.48295 23.3136 2.00142 23.7312 1.60085C24.1573 1.20028 24.6644 1 25.2525 1C25.8406 1 26.3434 1.20028 26.761 1.60085C27.1871 2.00142 27.4002 2.48295 27.4002 3.04545C27.4002 3.60795 27.1871 4.08949 26.761 4.49006C26.3434 4.89062 25.8406 5.09091 25.2525 5.09091ZM41.0057 8.36364V10.9205H30.4205V8.36364H41.0057ZM33.5909 28V5.65341C33.5909 4.52841 33.8551 3.59091 34.3835 2.84091C34.9119 2.09091 35.598 1.52841 36.4418 1.15341C37.2855 0.778407 38.1761 0.590907 39.1136 0.590907C39.8551 0.590907 40.4602 0.650567 40.929 0.769886C41.3977 0.889203 41.7472 0.999999 41.9773 1.10227L41.108 3.71023C40.9545 3.65909 40.7415 3.59517 40.4688 3.51847C40.2045 3.44176 39.8551 3.40341 39.4205 3.40341C38.4233 3.40341 37.7031 3.65483 37.2599 4.15767C36.8253 4.66051 36.608 5.39773 36.608 6.36932V28H33.5909ZM58.3345 12.7614L55.6243 13.5284C55.4538 13.0767 55.2024 12.6378 54.87 12.2116C54.5462 11.777 54.103 11.419 53.5405 11.1378C52.978 10.8565 52.2578 10.7159 51.38 10.7159C50.1783 10.7159 49.1768 10.9929 48.3757 11.5469C47.5831 12.0923 47.1868 12.7869 47.1868 13.6307C47.1868 14.3807 47.4595 14.973 48.005 15.4077C48.5504 15.8423 49.4027 16.2045 50.5618 16.4943L53.4766 17.2102C55.2322 17.6364 56.5405 18.2884 57.4013 19.1662C58.2621 20.0355 58.6925 21.1562 58.6925 22.5284C58.6925 23.6534 58.3686 24.6591 57.7209 25.5455C57.0817 26.4318 56.1868 27.1307 55.0362 27.642C53.8857 28.1534 52.5476 28.4091 51.022 28.4091C49.0192 28.4091 47.3615 27.9744 46.049 27.1051C44.7365 26.2358 43.9055 24.9659 43.5561 23.2955L46.4197 22.5795C46.6925 23.6364 47.2081 24.429 47.9666 24.9574C48.7337 25.4858 49.7351 25.75 50.9709 25.75C52.3771 25.75 53.4936 25.4517 54.3203 24.8551C55.1555 24.25 55.5732 23.5256 55.5732 22.6818C55.5732 22 55.3345 21.429 54.8572 20.9688C54.38 20.5 53.647 20.1506 52.6584 19.9205L49.3857 19.1534C47.5874 18.7273 46.2663 18.0668 45.4226 17.1719C44.5874 16.2685 44.1697 15.1392 44.1697 13.7841C44.1697 12.6761 44.4808 11.696 45.103 10.8438C45.7337 9.99148 46.5902 9.32244 47.6726 8.83665C48.7635 8.35085 49.9993 8.10795 51.38 8.10795C53.3232 8.10795 54.8487 8.53409 55.9567 9.38636C57.0732 10.2386 57.8658 11.3636 58.3345 12.7614ZM63.6431 28V1.81818H72.7965C74.6204 1.81818 76.1246 2.13352 77.3093 2.7642C78.494 3.38636 79.3761 4.22585 79.9556 5.28267C80.5352 6.33096 80.8249 7.49432 80.8249 8.77273C80.8249 9.89773 80.6246 10.8267 80.2241 11.5597C79.832 12.2926 79.3121 12.8722 78.6644 13.2983C78.0252 13.7244 77.3306 14.0398 76.5806 14.2443V14.5C77.3817 14.5511 78.1871 14.8324 78.9968 15.3438C79.8065 15.8551 80.484 16.5881 81.0295 17.5426C81.5749 18.4972 81.8477 19.6648 81.8477 21.0455C81.8477 22.358 81.5494 23.5384 80.9528 24.5866C80.3562 25.6349 79.4144 26.4659 78.1275 27.0795C76.8406 27.6932 75.1658 28 73.1033 28H63.6431ZM66.8136 25.1875H73.1033C75.1744 25.1875 76.6445 24.7869 77.5139 23.9858C78.3917 23.1761 78.8306 22.196 78.8306 21.0455C78.8306 20.1591 78.6048 19.3409 78.1531 18.5909C77.7014 17.8324 77.0579 17.2273 76.2227 16.7756C75.3874 16.3153 74.3988 16.0852 73.2567 16.0852H66.8136V25.1875ZM66.8136 13.3239H72.6942C73.6488 13.3239 74.5096 13.1364 75.2766 12.7614C76.0522 12.3864 76.6658 11.858 77.1175 11.1761C77.5778 10.4943 77.8079 9.69318 77.8079 8.77273C77.8079 7.62216 77.4073 6.64631 76.6062 5.84517C75.805 5.03551 74.5352 4.63068 72.7965 4.63068H66.8136V13.3239ZM94.6254 28.4091C92.8526 28.4091 91.2972 27.9872 89.9592 27.1435C88.6296 26.2997 87.5898 25.1193 86.8398 23.6023C86.0984 22.0852 85.7276 20.3125 85.7276 18.2841C85.7276 16.2386 86.0984 14.4531 86.8398 12.9276C87.5898 11.402 88.6296 10.2173 89.9592 9.37358C91.2972 8.52983 92.8526 8.10795 94.6254 8.10795C96.3981 8.10795 97.9492 8.52983 99.2788 9.37358C100.617 10.2173 101.657 11.402 102.398 12.9276C103.148 14.4531 103.523 16.2386 103.523 18.2841C103.523 20.3125 103.148 22.0852 102.398 23.6023C101.657 25.1193 100.617 26.2997 99.2788 27.1435C97.9492 27.9872 96.3981 28.4091 94.6254 28.4091ZM94.6254 25.6989C95.9719 25.6989 97.0799 25.3537 97.9492 24.6634C98.8185 23.973 99.462 23.0653 99.8796 21.9403C100.297 20.8153 100.506 19.5966 100.506 18.2841C100.506 16.9716 100.297 15.7486 99.8796 14.6151C99.462 13.4815 98.8185 12.5653 97.9492 11.8665C97.0799 11.1676 95.9719 10.8182 94.6254 10.8182C93.2788 10.8182 92.1708 11.1676 91.3015 11.8665C90.4322 12.5653 89.7887 13.4815 89.3711 14.6151C88.9535 15.7486 88.7447 16.9716 88.7447 18.2841C88.7447 19.5966 88.9535 20.8153 89.3711 21.9403C89.7887 23.0653 90.4322 23.973 91.3015 24.6634C92.1708 25.3537 93.2788 25.6989 94.6254 25.6989ZM116.668 8.36364V10.9205H106.492V8.36364H116.668ZM109.458 3.65909H112.475V22.375C112.475 23.2273 112.599 23.8665 112.846 24.2926C113.102 24.7102 113.425 24.9915 113.817 25.1364C114.218 25.2727 114.64 25.3409 115.083 25.3409C115.415 25.3409 115.688 25.3239 115.901 25.2898C116.114 25.2472 116.285 25.2131 116.413 25.1875L117.026 27.8977C116.822 27.9744 116.536 28.0511 116.17 28.1278C115.803 28.2131 115.339 28.2557 114.776 28.2557C113.924 28.2557 113.089 28.0724 112.271 27.706C111.461 27.3395 110.788 26.7812 110.251 26.0312C109.722 25.2812 109.458 24.3352 109.458 23.1932V3.65909Z" fill="black"/>
</svg>
